<?xml version="1.0" standalone="no"?>
<svg xmlns="http://www.w3.org/2000/svg" width="32" height="32"><rect width="32" height="32" opacity="0"></rect><g><path d="M21.7 2.98Q20.13 2.98 18.67 3.54Q17.22 4.1 16 5.12Q14.78 4.1 13.33 3.54Q11.87 2.98 10.3 2.98Q7.84 2.98 5.79 4.22Q3.74 5.47 2.54 7.58Q1.34 9.7 1.34 12.16Q1.34 14.34 2.86 17.07Q4.38 19.81 6.82 22.46Q9.34 25.25 11.97 27.14Q14.59 29.02 15.97 29.02Q17.54 29.02 20.08 27.25Q22.62 25.47 25.09 22.78Q27.55 20.06 29.1 17.23Q30.66 14.4 30.66 12.16Q30.66 9.7 29.46 7.58Q28.26 5.47 26.21 4.22Q24.16 2.98 21.7 2.98Z" fill="rgba(232,64,38,1)"></path></g></svg>