<svg xmlns="http://www.w3.org/2000/svg" width="24" height="24">
    <rect width="24" height="24" opacity="0"></rect>
    <g>
        <path d="M7.52 3.58Q6.92 3.58 6.49 4Q6.07 4.42 6.07 4.99L6.07 18.98Q6.07 19.58 6.49 19.99Q6.92 20.4 7.52 20.4Q8.09 20.4 8.51 19.99Q8.93 19.58 8.93 18.98L8.93 4.99Q8.93 4.42 8.51 4Q8.09 3.58 7.52 3.58ZM16.52 3.58Q15.92 3.58 15.49 4Q15.07 4.42 15.07 4.99L15.07 18.98Q15.07 19.58 15.49 19.99Q15.92 20.4 16.52 20.4Q17.09 20.4 17.51 19.99Q17.93 19.58 17.93 18.98L17.93 4.99Q17.93 4.42 17.51 4Q17.09 3.58 16.52 3.58Z"
              fill="rgba(255,255,255,1)"></path>
    </g>
</svg>