<?xml version="1.0" standalone="no"?>
<svg xmlns="http://www.w3.org/2000/svg" width="48" height="48"><rect width="48" height="48" opacity="0"></rect><g mask="url(#hms_mask_0)"><path d="M34.56 2.69Q29.38 1.1 22.92 2.95Q16.46 4.8 9.98 11.04Q3.7 17.04 2.5 22.34Q1.3 27.65 2.83 32.16Q3.74 34.7 6.65 37.58Q9.55 40.46 14.23 42.77Q18.91 45.07 24.82 45.74Q31.3 46.51 35.74 45.19Q40.18 43.87 42.74 40.1Q45.31 36.34 45.89 29.76Q46.46 23.33 44.93 17.45Q43.39 11.57 40.56 7.61Q37.73 3.65 34.56 2.69Z" fill="rgba(255,255,255,1)"></path></g><defs><mask id="hms_mask_0"><rect width="48" height="48" fill="#ffffff"></rect><g><path d="M20.3 32.69Q19.68 32.69 19.22 32.26Q18.77 31.82 18.77 31.2L18.77 17.57Q18.77 16.94 19.22 16.51Q19.68 16.08 20.3 16.08Q20.93 16.08 21.36 16.51Q21.79 16.94 21.79 17.57L21.79 31.2Q21.79 31.82 21.36 32.26Q20.93 32.69 20.3 32.69ZM29.42 32.69Q28.8 32.69 28.37 32.26Q27.94 31.82 27.94 31.2L27.94 17.57Q27.94 16.94 28.37 16.51Q28.8 16.08 29.42 16.08Q30.05 16.08 30.48 16.51Q30.91 16.94 30.91 17.57L30.91 31.2Q30.91 31.82 30.48 32.26Q30.05 32.69 29.42 32.69Z" fill="#000000"></path></g></mask></defs></svg>